<svg version="1.1" xmlns="http://www.w3.org/2000/svg" xmlns:xlink="http://www.w3.org/1999/xlink" width="48" height="48"><defs><linearGradient x1="8.44322" y1="8.44322" x2="73.33421" y2="73.33421" gradientUnits="userSpaceOnUse" id="color-1"><stop offset="0" stop-color="#000000" stop-opacity="0.3"></stop><stop offset="1" stop-color="#000000" stop-opacity="0"></stop></linearGradient><filter id="dropshadow-base"><feColorMatrix type="matrix" values="0 0 0 0 0  0 0 0 0 0  0 0 0 0 0  0 0 0 .8 0"></feColorMatrix> <feOffset dx="0" dy="1"></feOffset> <feGaussianBlur stdDeviation="1"></feGaussianBlur> <feComposite in="SourceGraphic"></feComposite></filter><filter id="dropshadow-banner" x="-10%" y="-10%" width="120%" height="130%"><feColorMatrix type="matrix" values="0 0 0 0 0  0 0 0 0 0  0 0 0 0 0  0 0 0 .4 0"></feColorMatrix> <feOffset dx="0" dy="1"></feOffset> <feGaussianBlur stdDeviation="0.5"></feGaussianBlur> <feComposite in="SourceGraphic"></feComposite></filter></defs><g fill="none" fill-rule="nonzero" stroke="none" stroke-width="none" stroke-linecap="butt" stroke-linejoin="miter" stroke-miterlimit="10" stroke-dasharray="" stroke-dashoffset="0" font-family="none" font-weight="none" font-size="none" text-anchor="none" style="mix-blend-mode: normal"><path d="M2,24c0,-12.15026 9.84974,-22 22,-22c12.15026,0 22,9.84974 22,22c0,12.15026 -9.84974,22 -22,22c-12.15026,0 -22,-9.84974 -22,-22z" id="base 1 5" fill="#f24236" stroke-width="1"></path><path d="M12.99358,35.00642c-2.81319,-2.81319 -4.55036,-6.70238 -4.55036,-11.00642c0,-8.60808 6.9487,-15.55678 15.55678,-15.55678c4.30404,0 8.19324,1.73718 11.00642,4.55036l10.99358,10.99358c0,0.00428 0,0.00856 0,0.01285c0,12.15026 -9.84974,22 -22,22c-0.00428,0 -0.00856,0 -0.01285,0z" fill="url(#color-1)" stroke-width="1"></path><path d="M39.55678,24c0,8.60809 -6.9487,15.55678 -15.55678,15.55678c-8.60809,0 -15.55678,-6.9487 -15.55678,-15.55678c0,-8.60809 6.9487,-15.55678 15.55678,-15.55678c8.60809,0 15.55678,6.9487 15.55678,15.55678zM32.02039,31.8821v-15.76421c0,-0.93341 -0.76055,-1.69396 -1.69396,-1.69396h-12.61828c-0.93341,0 -1.69396,0.76055 -1.69396,1.69396v15.76421c0,0.93341 0.76055,1.69396 1.69396,1.69396h12.61828c0.93341,0 1.69396,-0.76055 1.69396,-1.69396zM20.88864,29.60044v1.72853c0,0.20742 -0.13828,0.34571 -0.34571,0.34571h-2.07424c-0.17285,0 -0.34571,-0.13828 -0.34571,-0.34571v-1.72853c0,-0.20742 0.13828,-0.34571 0.34571,-0.34571h2.07424c0.20742,0 0.34571,0.13828 0.34571,0.34571zM20.88864,25.59025v1.72853c0,0.20742 -0.13828,0.34571 -0.34571,0.34571h-2.07424c-0.17285,0 -0.34571,-0.13828 -0.34571,-0.34571v-1.72853c0,-0.17285 0.13828,-0.34571 0.34571,-0.34571h2.07424c0.20742,0 0.34571,0.13828 0.34571,0.34571zM20.88864,21.58006v1.72853c0,0.17285 -0.13828,0.34571 -0.34571,0.34571h-2.07424c-0.17285,0 -0.34571,-0.13828 -0.34571,-0.34571v-1.72853c0,-0.17285 0.13828,-0.34571 0.34571,-0.34571h2.07424c0.20742,0 0.34571,0.13828 0.34571,0.34571zM25.38283,29.63501v1.72853c0,0.20742 -0.13828,0.34571 -0.34571,0.34571h-2.07424c-0.17285,0 -0.34571,-0.13828 -0.34571,-0.34571v-1.72853c0,-0.20742 0.13828,-0.34571 0.34571,-0.34571h2.07424c0.20742,0 0.34571,0.13828 0.34571,0.34571zM25.38283,25.59025v1.72853c0,0.20742 -0.13828,0.34571 -0.34571,0.34571h-2.07424c-0.17285,0 -0.34571,-0.13828 -0.34571,-0.34571v-1.72853c0,-0.17285 0.13828,-0.34571 0.34571,-0.34571h2.07424c0.20742,0 0.34571,0.13828 0.34571,0.34571zM25.38283,21.58006v1.72853c0,0.17285 -0.13828,0.34571 -0.34571,0.34571h-2.07424c-0.17285,0 -0.34571,-0.13828 -0.34571,-0.34571v-1.72853c0,-0.17285 0.13828,-0.34571 0.34571,-0.34571h2.07424c0.20742,0 0.34571,0.13828 0.34571,0.34571zM29.87701,29.63501v1.72853c0,0.20742 -0.13828,0.34571 -0.34571,0.34571h-2.07424c-0.17285,0 -0.34571,-0.13828 -0.34571,-0.34571v-1.72853c0,-0.20742 0.13828,-0.34571 0.34571,-0.34571h2.07424c0.20742,0 0.34571,0.13828 0.34571,0.34571zM29.87701,25.59025v1.72853c0,0.20742 -0.13828,0.34571 -0.34571,0.34571h-2.07424c-0.17285,0 -0.34571,-0.13828 -0.34571,-0.34571v-1.72853c0,-0.20742 0.13828,-0.34571 0.34571,-0.34571h2.07424c0.20742,0 0.34571,0.13828 0.34571,0.34571zM29.87701,21.58006v1.72853c0,0.17285 -0.13828,0.34571 -0.34571,0.34571h-2.07424c-0.17285,0 -0.34571,-0.13828 -0.34571,-0.34571v-1.72853c0,-0.17285 0.13828,-0.34571 0.34571,-0.34571h2.07424c0.20742,0 0.34571,0.13828 0.34571,0.34571zM30.04986,17.25873v2.10881c0,0.34571 -0.31114,0.5877 -0.65684,0.5877h-10.75146c-0.38028,0 -0.65684,-0.31114 -0.65684,-0.65684v-2.07424c0,-0.38028 0.31114,-0.65684 0.65684,-0.65684h10.71689c0.38028,0 0.65684,0.27657 0.69141,0.69141z" fill="none" stroke-width="0"></path><path d="M39.55678,24c0,8.60809 -6.9487,15.55678 -15.55678,15.55678c-8.60809,0 -15.55678,-6.9487 -15.55678,-15.55678c0,-8.60809 6.9487,-15.55678 15.55678,-15.55678c8.60809,0 15.55678,6.9487 15.55678,15.55678zM32.02039,31.8821v-15.76421c0,-0.93341 -0.76055,-1.69396 -1.69396,-1.69396h-12.61828c-0.93341,0 -1.69396,0.76055 -1.69396,1.69396v15.76421c0,0.93341 0.76055,1.69396 1.69396,1.69396h12.61828c0.93341,0 1.69396,-0.76055 1.69396,-1.69396zM20.88864,29.60044v1.72853c0,0.20742 -0.13828,0.34571 -0.34571,0.34571h-2.07424c-0.17285,0 -0.34571,-0.13828 -0.34571,-0.34571v-1.72853c0,-0.20742 0.13828,-0.34571 0.34571,-0.34571h2.07424c0.20742,0 0.34571,0.13828 0.34571,0.34571zM20.88864,25.59025v1.72853c0,0.20742 -0.13828,0.34571 -0.34571,0.34571h-2.07424c-0.17285,0 -0.34571,-0.13828 -0.34571,-0.34571v-1.72853c0,-0.17285 0.13828,-0.34571 0.34571,-0.34571h2.07424c0.20742,0 0.34571,0.13828 0.34571,0.34571zM20.88864,21.58006v1.72853c0,0.17285 -0.13828,0.34571 -0.34571,0.34571h-2.07424c-0.17285,0 -0.34571,-0.13828 -0.34571,-0.34571v-1.72853c0,-0.17285 0.13828,-0.34571 0.34571,-0.34571h2.07424c0.20742,0 0.34571,0.13828 0.34571,0.34571zM25.38283,29.63501v1.72853c0,0.20742 -0.13828,0.34571 -0.34571,0.34571h-2.07424c-0.17285,0 -0.34571,-0.13828 -0.34571,-0.34571v-1.72853c0,-0.20742 0.13828,-0.34571 0.34571,-0.34571h2.07424c0.20742,0 0.34571,0.13828 0.34571,0.34571zM25.38283,25.59025v1.72853c0,0.20742 -0.13828,0.34571 -0.34571,0.34571h-2.07424c-0.17285,0 -0.34571,-0.13828 -0.34571,-0.34571v-1.72853c0,-0.17285 0.13828,-0.34571 0.34571,-0.34571h2.07424c0.20742,0 0.34571,0.13828 0.34571,0.34571zM25.38283,21.58006v1.72853c0,0.17285 -0.13828,0.34571 -0.34571,0.34571h-2.07424c-0.17285,0 -0.34571,-0.13828 -0.34571,-0.34571v-1.72853c0,-0.17285 0.13828,-0.34571 0.34571,-0.34571h2.07424c0.20742,0 0.34571,0.13828 0.34571,0.34571zM29.87701,29.63501v1.72853c0,0.20742 -0.13828,0.34571 -0.34571,0.34571h-2.07424c-0.17285,0 -0.34571,-0.13828 -0.34571,-0.34571v-1.72853c0,-0.20742 0.13828,-0.34571 0.34571,-0.34571h2.07424c0.20742,0 0.34571,0.13828 0.34571,0.34571zM29.87701,25.59025v1.72853c0,0.20742 -0.13828,0.34571 -0.34571,0.34571h-2.07424c-0.17285,0 -0.34571,-0.13828 -0.34571,-0.34571v-1.72853c0,-0.20742 0.13828,-0.34571 0.34571,-0.34571h2.07424c0.20742,0 0.34571,0.13828 0.34571,0.34571zM29.87701,21.58006v1.72853c0,0.17285 -0.13828,0.34571 -0.34571,0.34571h-2.07424c-0.17285,0 -0.34571,-0.13828 -0.34571,-0.34571v-1.72853c0,-0.17285 0.13828,-0.34571 0.34571,-0.34571h2.07424c0.20742,0 0.34571,0.13828 0.34571,0.34571zM30.04986,17.25873v2.10881c0,0.34571 -0.31114,0.5877 -0.65684,0.5877h-10.75146c-0.38028,0 -0.65684,-0.31114 -0.65684,-0.65684v-2.07424c0,-0.38028 0.31114,-0.65684 0.65684,-0.65684h10.71689c0.38028,0 0.65684,0.27657 0.69141,0.69141z" fill="#ffffff" stroke-width="0"></path><path d="M2,24c0,-12.15026 9.84974,-22 22,-22c12.15026,0 22,9.84974 22,22c0,12.15026 -9.84974,22 -22,22c-12.15026,0 -22,-9.84974 -22,-22z" id="base 1 1 1" fill="none" stroke-width="1"></path><g id="Layer_1 1 1" fill="#000000" stroke-width="1" font-family="Roboto,sans-serif" font-weight="400" font-size="14" text-anchor="start"></g><rect x="2" y="2" width="44" height="22" fill="none" stroke-width="1"></rect><path d="M2,24v-22h44v22z" fill="none" stroke-width="1"></path><path d="M2,24v-22h44v22z" fill="none" stroke-width="1"></path><path d="M2,24v-22h44v22z" fill="none" stroke-width="1"></path><path d="M2,24v-22h44v22z" fill="none" stroke-width="1"></path></g></svg>